<?xml version="1.0" standalone="no"?>
<!DOCTYPE svg PUBLIC "-//W3C//DTD SVG 20010904//EN"
 "http://www.w3.org/TR/2001/REC-SVG-20010904/DTD/svg10.dtd">
<svg version="1.0" xmlns="http://www.w3.org/2000/svg"
 width="394.000000pt" height="393.000000pt" viewBox="0 0 394.000000 393.000000"
 preserveAspectRatio="xMidYMid meet">

<g transform="translate(0.000000,393.000000) scale(0.100000,-0.100000)"
fill="#000000" stroke="none">
<path d="M1816 3839 c-817 -67 -1503 -664 -1680 -1460 -191 -861 227 -1725
1019 -2109 520 -252 1135 -250 1646 5 530 266 893 734 1015 1309 32 150 44
447 24 603 -51 419 -226 783 -519 1086 -321 332 -740 529 -1205 567 -141 11
-155 11 -300 -1z m234 -168 c41 -30 52 -81 48 -226 -6 -192 -24 -215 -174
-215 l-74 0 0 236 0 237 88 -7 c60 -4 95 -12 112 -25z m-295 -3 c16 -75 63
-434 57 -440 -4 -3 -25 -8 -47 -10 l-40 -3 -32 215 c-17 118 -32 223 -32 232
-1 16 15 22 71 27 11 0 20 -8 23 -21z m549 -3 c44 -9 82 -17 84 -19 2 -3 1
-18 -3 -35 -6 -26 -10 -30 -31 -26 -77 16 -71 17 -79 -23 -3 -20 -9 -47 -12
-59 -4 -18 1 -23 26 -30 17 -4 31 -11 31 -15 0 -5 0 -19 0 -33 0 -24 -3 -26
-37 -23 l-37 3 -12 -65 c-7 -36 -11 -65 -11 -66 1 0 22 -5 47 -10 42 -9 45
-11 42 -39 -2 -17 -5 -31 -7 -33 -1 -2 -44 5 -94 14 -68 12 -91 20 -91 32 0
14 40 231 71 390 6 28 16 52 22 52 7 0 48 -7 91 -15z m-754 -40 c29 -15 67
-71 56 -82 -3 -4 -23 -14 -44 -23 l-39 -17 -10 28 c-16 40 -53 41 -53 1 0 -34
23 -57 87 -87 104 -48 157 -127 133 -199 -31 -96 -168 -109 -221 -22 -26 43
-24 48 21 73 l40 22 14 -34 c18 -41 34 -51 53 -32 13 13 13 18 -1 46 -12 23
-38 42 -97 71 -92 47 -119 80 -119 148 0 54 12 78 53 102 38 24 87 25 127 5z
m1133 -81 c18 -9 33 -17 34 -18 2 -1 -8 -42 -22 -91 -13 -49 -23 -90 -21 -92
1 -1 28 29 60 67 31 39 62 70 67 70 13 0 69 -29 69 -35 0 -3 -47 -57 -105
-120 -71 -78 -116 -138 -140 -185 l-35 -70 -40 20 c-22 11 -40 23 -40 25 0 3
15 36 33 73 24 47 42 108 61 207 29 152 33 165 41 165 3 0 20 -7 38 -16z
m-1333 -185 c57 -105 104 -198 107 -208 3 -12 -7 -22 -32 -34 -20 -9 -38 -17
-40 -17 -2 0 -26 40 -52 89 l-48 89 -28 -15 -28 -14 45 -85 c25 -46 46 -88 46
-94 0 -5 -17 -18 -39 -29 l-38 -20 -107 200 c-58 110 -106 203 -106 208 0 4
18 17 39 29 l39 22 43 -84 43 -84 28 14 28 14 -40 80 c-22 44 -40 81 -40 84 0
5 63 46 72 46 4 0 52 -86 108 -191z m-380 -44 c-14 -15 -19 -28 -14 -37 4 -7
59 -77 121 -155 l113 -142 -34 -26 c-18 -14 -36 -25 -39 -25 -4 0 -61 68 -127
150 l-121 151 -28 -20 -28 -20 -21 29 -22 29 88 70 87 70 23 -26 23 -25 -21
-23z m2076 34 c32 -19 64 -72 64 -103 0 -34 -32 -91 -102 -182 -80 -107 -117
-134 -177 -134 -33 0 -49 7 -81 36 -75 68 -64 123 60 282 100 130 151 152 236
101z m216 -206 c15 -15 28 -30 28 -33 0 -4 -63 -62 -141 -129 -77 -67 -143
-129 -146 -137 -7 -18 14 -44 37 -44 9 0 81 55 159 121 l142 121 30 -28 c16
-16 28 -34 27 -40 -4 -17 -248 -223 -290 -245 -47 -24 -75 -24 -116 1 -71 44
-92 134 -43 195 23 30 268 245 279 245 3 0 19 -12 34 -27z m-2453 -15 c39 -31
61 -70 61 -105 0 -28 6 -32 100 -73 55 -24 100 -48 100 -55 0 -6 -13 -24 -29
-39 l-29 -28 -97 52 c-53 29 -98 50 -101 47 -3 -2 12 -19 33 -37 21 -18 58
-51 82 -73 l43 -39 -33 -34 -34 -33 -125 111 c-69 61 -147 131 -174 155 l-48
43 43 48 c86 94 144 111 208 60z m1281 -22 c108 -8 256 -48 365 -100 411 -194
665 -592 665 -1040 0 -593 -438 -1080 -1032 -1146 -495 -56 -993 242 -1179
705 -146 367 -104 767 114 1090 54 79 185 214 266 274 124 92 275 161 430 198
68 15 227 31 271 27 14 -2 59 -5 100 -8z m1419 -302 c57 -101 57 -97 8 -125
-14 -8 -19 -5 -29 16 -6 14 -16 25 -21 25 -6 0 -84 -43 -175 -96 -129 -76
-166 -93 -174 -83 -5 8 -15 26 -23 41 l-15 27 127 75 c239 140 217 123 199
151 -9 13 -16 27 -16 29 0 5 51 35 60 35 3 0 29 -43 59 -95z m-2870 45 c220
-117 265 -189 181 -291 -36 -43 -81 -56 -133 -39 -56 19 -232 128 -261 161
-45 54 -31 141 30 189 42 33 94 28 183 -20z m2991 -294 c0 -6 -38 -24 -85 -40
-86 -30 -89 -33 -79 -72 l6 -22 80 30 c44 16 85 29 92 29 7 0 20 -18 29 -40
l16 -41 -27 -10 c-78 -30 -407 -149 -413 -149 -3 0 -11 19 -18 41 -15 48 -14
49 64 75 111 38 115 41 104 73 l-10 29 -82 -30 c-121 -45 -112 -45 -131 2 -9
24 -16 44 -14 45 2 2 100 38 218 82 l215 79 17 -35 c10 -20 18 -41 18 -46z
m-3050 -47 c96 -33 176 -61 178 -62 1 -2 -3 -17 -9 -34 l-11 -32 -111 0 c-62
0 -118 -4 -124 -8 -8 -5 28 -21 93 -42 l106 -34 -6 -30 c-4 -17 -11 -35 -16
-40 -5 -5 -92 20 -225 65 -212 73 -216 74 -210 99 4 14 10 29 15 34 5 5 61 11
125 14 64 3 113 8 108 12 -4 4 -51 22 -103 39 -52 18 -96 34 -98 35 -1 2 5 19
13 39 l15 36 42 -15 c24 -9 122 -43 218 -76z m-101 -487 l30 -59 67 -7 66 -7
-49 -51 -49 -52 9 -58 c5 -32 7 -60 4 -64 -3 -3 -30 8 -61 24 l-54 30 -56 -31
c-30 -16 -57 -28 -59 -26 -3 3 0 33 6 68 l10 63 -48 49 -47 48 66 7 67 7 30
59 c16 33 31 59 34 59 3 0 18 -26 34 -59z m3050 0 l30 -59 67 -7 66 -7 -49
-51 -49 -52 9 -58 c5 -32 7 -60 4 -64 -3 -3 -30 8 -61 24 l-54 30 -56 -31
c-30 -16 -57 -28 -59 -26 -3 3 0 33 6 68 l10 63 -48 49 -47 48 66 7 67 7 30
59 c16 33 31 59 34 59 3 0 18 -26 34 -59z m-2755 -556 c75 -57 73 -174 -4
-215 -15 -8 -22 -2 -45 31 -14 23 -25 42 -23 44 2 1 13 8 26 14 12 6 22 20 22
30 0 44 -63 28 -84 -21 -8 -18 -22 -55 -32 -83 -33 -96 -126 -155 -190 -122
-90 47 -99 161 -17 221 l26 19 28 -34 c16 -19 29 -37 29 -41 0 -4 -13 -14 -30
-23 -32 -16 -41 -51 -16 -61 37 -14 79 41 105 136 22 79 70 120 141 120 25 0
54 -7 64 -15z m2426 -55 c-11 -22 -20 -42 -20 -44 0 -6 48 -32 85 -46 22 -8
27 -6 40 20 15 30 16 30 45 15 30 -15 30 -16 15 -45 l-15 -30 60 -30 c32 -16
62 -30 65 -30 2 0 14 18 25 40 11 22 22 40 25 40 10 0 55 -24 54 -29 0 -3 -19
-43 -42 -87 l-42 -81 -204 99 c-113 54 -207 101 -210 104 -3 2 14 43 37 90
l42 84 30 -15 30 -16 -20 -39z m18 -240 c167 -129 195 -166 173 -233 -14 -41
-67 -93 -103 -102 -17 -4 -42 0 -72 13 -47 21 -305 211 -305 225 -1 5 11 23
25 42 l25 34 137 -106 c75 -58 147 -110 159 -115 30 -15 53 -3 53 26 0 21 -28
47 -150 141 l-150 116 27 35 c14 19 32 33 39 30 6 -2 71 -50 142 -106z m-2275
31 c30 -33 37 -48 37 -82 0 -60 -28 -98 -129 -173 -111 -83 -136 -96 -188 -96
-79 0 -144 86 -122 162 11 41 36 66 140 144 146 109 194 117 262 45z m194
-211 c61 -48 69 -110 24 -182 -16 -25 -33 -48 -38 -51 -4 -3 -24 7 -42 23
l-35 27 32 44 c36 49 39 64 15 78 -26 14 -44 1 -137 -109 -86 -101 -104 -141
-70 -154 21 -8 47 7 77 45 l25 32 36 -29 c32 -26 34 -31 22 -49 -28 -43 -96
-85 -137 -85 -56 0 -118 58 -125 115 -6 50 11 83 102 191 114 135 178 161 251
104z m1789 -1 c19 -11 42 -33 53 -48 l20 -27 -35 -28 -35 -28 -20 26 c-29 37
-57 50 -75 35 -27 -22 -14 -55 64 -151 85 -107 112 -128 137 -108 21 18 19 45
-8 76 -21 24 -25 25 -44 13 -19 -11 -24 -10 -42 12 l-21 24 33 28 c17 16 44
37 58 47 l26 19 71 -89 c40 -49 72 -93 72 -97 0 -11 -43 -38 -56 -35 -6 1 -17
-13 -25 -30 -9 -21 -28 -40 -51 -51 -71 -35 -127 3 -253 167 -47 63 -59 85
-62 124 -4 38 -1 52 18 76 51 65 116 82 175 45z m-1573 -143 c79 -33 103 -100
67 -184 -12 -29 -27 -52 -32 -52 -8 0 -67 27 -76 35 -2 2 6 21 17 44 26 50 26
67 1 81 -29 15 -50 -11 -115 -140 -59 -117 -63 -131 -41 -149 20 -17 40 -5 66
42 13 23 24 43 26 45 1 2 21 -6 43 -18 38 -19 40 -23 30 -43 -35 -67 -92 -117
-135 -117 -34 0 -100 40 -118 71 -28 47 -15 102 49 221 65 122 80 142 120 162
37 19 57 20 98 2z m1391 -192 c80 -99 146 -183 146 -186 0 -3 -18 -13 -39 -23
l-40 -18 -25 29 c-14 16 -26 32 -26 37 0 11 -24 8 -43 -6 -16 -11 -16 -16 -4
-58 l14 -46 -42 -21 -43 -21 -62 231 c-34 126 -60 231 -58 233 11 9 64 34 70
32 3 -1 72 -83 152 -183z m-1138 83 c60 -18 74 -26 74 -42 0 -39 -15 -49 -50
-36 -52 18 -58 14 -75 -41 -8 -28 -15 -53 -15 -55 0 -2 14 -9 30 -14 33 -12
34 -16 20 -53 -8 -23 -12 -24 -40 -14 -17 5 -32 9 -34 7 -11 -18 -36 -123 -29
-129 4 -4 25 -13 45 -19 35 -12 36 -13 26 -42 -5 -16 -15 -29 -21 -29 -25 0
-162 49 -165 58 -2 6 27 108 64 227 52 165 71 215 82 210 7 -3 47 -15 88 -28z
m848 1 c11 -41 6 -48 -38 -59 l-44 -11 15 -51 c19 -65 24 -70 57 -58 24 10 28
8 36 -15 15 -38 13 -44 -20 -50 -16 -4 -30 -11 -30 -17 0 -10 31 -118 36 -126
2 -2 23 4 48 12 l45 15 10 -30 c6 -17 11 -32 11 -34 0 -4 -165 -54 -177 -54
-7 0 -131 393 -137 434 -1 7 141 60 175 65 4 1 9 -9 13 -21z m-597 -68 c54
-24 66 -48 61 -123 -4 -52 -9 -64 -37 -89 l-32 -29 16 -87 c9 -48 19 -97 22
-110 5 -20 2 -22 -33 -22 -22 0 -44 4 -50 8 -9 6 -34 162 -34 212 0 6 -4 9 -9
6 -4 -3 -11 -36 -15 -73 -13 -135 -12 -133 -62 -133 -54 0 -53 -16 -19 255 14
110 25 204 25 208 0 13 122 -4 167 -23z m332 -147 c34 -256 25 -231 75 -226
40 5 44 3 50 -22 4 -15 4 -30 1 -33 -9 -9 -169 -30 -176 -23 -3 3 -18 98 -33
211 -15 113 -30 215 -33 227 -5 22 -2 23 78 31 13 2 20 -27 38 -165z"/>
<path d="M1940 3464 l0 -165 28 3 27 3 3 154 c3 161 0 170 -40 171 -16 0 -18
-14 -18 -166z"/>
<path d="M2958 3278 c-35 -27 -168 -212 -168 -234 0 -28 14 -38 43 -30 33 8
189 218 185 248 -4 27 -35 35 -60 16z"/>
<path d="M684 3056 c-6 -15 62 -85 82 -86 18 0 25 29 14 50 -23 42 -85 65 -96
36z"/>
<path d="M1753 3019 c-333 -70 -575 -256 -728 -559 -97 -192 -129 -345 -122
-570 4 -130 9 -169 31 -243 138 -461 549 -768 1028 -767 206 1 273 17 473 115
143 70 258 155 341 251 275 322 345 726 193 1108 -140 352 -417 598 -752 667
-125 26 -337 25 -464 -2z m231 -20 c44 -12 133 -91 161 -142 11 -22 16 -43 12
-59 -8 -31 -180 -253 -207 -268 -21 -11 -269 -12 -340 -2 -42 7 -49 12 -122
107 -98 127 -100 144 -25 210 89 79 215 129 386 154 80 12 92 12 135 0z m398
-286 c76 -38 119 -67 144 -96 41 -48 104 -175 145 -291 34 -99 34 -101 -85
-242 -84 -99 -91 -106 -120 -101 -48 8 -336 142 -350 163 -7 11 -39 85 -71
165 -47 121 -56 153 -51 182 9 49 160 246 206 269 42 21 47 20 182 -49z m340
-40 c162 -170 278 -427 278 -617 0 -101 -12 -98 -140 29 -97 97 -110 114 -121
159 -21 91 -68 208 -120 299 -34 60 -49 96 -45 111 10 39 45 86 64 86 10 0 48
-30 84 -67z m-1346 49 c28 -19 164 -216 164 -238 0 -37 -88 -375 -104 -399 -8
-12 -80 -64 -161 -115 -108 -68 -152 -90 -168 -86 -13 3 -46 40 -82 93 -57 84
-60 91 -59 148 1 143 90 363 191 474 91 101 179 150 219 123z m870 -693 c178
-74 232 -105 253 -147 29 -57 70 -251 60 -287 -10 -36 -190 -213 -257 -252
-67 -39 -131 -38 -251 7 -51 19 -104 45 -116 56 -34 31 -84 212 -110 396 -8
55 -12 51 154 184 123 100 128 101 267 43z m-631 -69 c121 -75 152 -101 165
-135 13 -35 80 -352 80 -380 0 -18 -14 -36 -51 -65 -62 -49 -205 -120 -241
-120 -23 0 -70 28 -309 183 -32 20 -61 48 -68 64 -20 49 -60 285 -51 307 4 12
76 67 161 124 126 85 157 102 178 97 14 -3 76 -37 136 -75z m1388 -46 c8 -50
-10 -185 -34 -257 -29 -85 -108 -239 -119 -232 -19 12 -10 53 34 162 46 116
76 221 76 270 0 35 18 93 30 93 4 0 10 -16 13 -36z m-290 -393 c41 -10 80 -21
85 -25 20 -12 25 -109 8 -150 -34 -81 -213 -238 -356 -312 -69 -35 -169 -40
-214 -11 -31 21 -31 30 0 167 14 62 18 68 77 115 34 28 99 82 143 122 88 78
140 113 165 113 9 0 50 -8 92 -19z m-1438 -132 c61 -38 141 -87 180 -107 77
-41 179 -131 246 -218 l43 -56 -24 -20 c-19 -15 -33 -18 -64 -14 -114 19 -323
142 -441 261 -83 83 -150 199 -125 215 35 23 75 10 185 -61z m925 -400 c27 -6
50 -14 50 -18 0 -5 -33 -19 -72 -32 -60 -19 -94 -24 -188 -23 -106 0 -211 17
-196 31 4 4 50 17 104 29 107 25 224 30 302 13z"/>
<path d="M487 2793 c-16 -15 -5 -44 26 -66 60 -46 212 -128 231 -125 10 2 24
11 30 20 15 25 -8 45 -134 118 -97 56 -137 70 -153 53z"/>
<path d="M735 1078 c-97 -73 -110 -86 -110 -113 0 -53 32 -44 151 45 109 81
132 106 121 134 -13 32 -54 15 -162 -66z"/>
<path d="M2653 605 c22 -69 24 -70 47 -55 12 7 8 18 -24 64 -21 31 -40 56 -41
56 -2 0 6 -29 18 -65z"/>
<path d="M1776 598 c-3 -13 -7 -40 -10 -61 -5 -37 -4 -38 22 -35 22 2 29 10
36 41 11 42 1 70 -27 75 -10 2 -18 -5 -21 -20z"/>
</g>
</svg>
