<?xml version="1.0" standalone="no"?>
<!DOCTYPE svg PUBLIC "-//W3C//DTD SVG 20010904//EN"
 "http://www.w3.org/TR/2001/REC-SVG-20010904/DTD/svg10.dtd">
<svg version="1.0" xmlns="http://www.w3.org/2000/svg"
 width="300.000000pt" height="300.000000pt" viewBox="0 0 300.000000 300.000000"
 preserveAspectRatio="xMidYMid meet">
<metadata>
Created by potrace 1.14, written by Peter Selinger 2001-2017
</metadata>
<g transform="translate(0.000000,300.000000) scale(0.100000,-0.100000)"
fill="#000000" stroke="none">
<path d="M1350 2931 c0 -3 -24 -6 -53 -6 -28 0 -62 -3 -75 -7 -12 -4 -37 -9
-55 -12 -56 -7 -97 -18 -103 -27 -3 -5 -11 -9 -19 -9 -8 0 -26 -5 -42 -12 -15
-6 -34 -12 -42 -14 -8 -1 -17 -8 -21 -14 -4 -7 -11 -12 -16 -11 -22 1 -54 -12
-54 -22 0 -6 -3 -8 -6 -4 -7 7 -112 -48 -189 -99 -55 -37 -141 -111 -219 -190
-45 -46 -69 -72 -146 -163 -11 -13 -20 -30 -20 -38 0 -7 -4 -13 -8 -13 -5 0
-17 -18 -27 -40 -10 -22 -21 -40 -24 -40 -4 0 -15 -22 -26 -50 -11 -27 -23
-50 -28 -50 -5 0 -7 -6 -4 -14 3 -8 1 -16 -4 -18 -6 -2 -11 -10 -13 -18 -2 -8
-9 -28 -16 -45 -7 -16 -14 -33 -14 -37 -1 -3 -4 -10 -8 -14 -5 -4 -8 -18 -8
-30 0 -13 -4 -25 -9 -28 -5 -3 -11 -18 -14 -33 -3 -16 -8 -39 -11 -53 -4 -14
-9 -47 -11 -75 -3 -27 -7 -66 -10 -85 -8 -48 -7 -286 0 -335 4 -22 7 -63 8
-92 1 -28 4 -49 7 -47 2 3 10 -21 17 -53 21 -94 22 -99 38 -129 8 -16 15 -34
15 -40 0 -16 24 -64 32 -64 4 0 5 -7 2 -15 -4 -8 -2 -15 4 -15 5 0 12 -9 15
-20 8 -31 10 -34 24 -48 7 -7 13 -20 13 -28 0 -8 5 -14 10 -14 6 0 10 -6 10
-14 0 -7 11 -25 24 -39 13 -14 22 -28 20 -30 -2 -2 7 -16 20 -30 14 -15 23
-27 21 -27 -6 0 35 -48 58 -69 9 -8 17 -21 17 -28 0 -7 3 -13 8 -13 4 0 45
-37 92 -81 47 -45 105 -95 130 -112 25 -17 46 -34 48 -39 2 -4 10 -8 18 -8 8
0 14 -5 14 -12 0 -6 3 -8 6 -5 4 4 19 -2 33 -12 14 -10 36 -22 49 -25 12 -4
22 -12 22 -17 0 -5 6 -9 13 -9 8 0 35 -11 62 -25 27 -13 52 -22 56 -20 4 3 10
-2 13 -11 3 -8 10 -13 15 -10 5 3 22 -1 38 -9 17 -8 42 -16 57 -17 14 -1 26
-6 26 -10 0 -4 8 -7 18 -7 16 0 50 -6 62 -12 3 -1 19 -3 35 -4 17 -1 44 -5 60
-9 41 -11 316 -13 390 -3 33 4 74 10 90 12 66 9 100 17 105 26 3 5 16 7 28 4
12 -2 22 0 22 6 0 5 8 9 18 9 10 0 22 3 26 8 4 4 11 7 14 7 13 1 107 39 112
46 3 3 16 10 29 14 13 4 46 20 73 36 27 16 53 29 58 29 6 0 10 4 10 9 0 5 11
12 25 15 14 4 25 11 25 17 0 5 9 13 19 17 32 12 274 232 255 232 -2 0 10 15
27 33 64 66 226 336 212 351 -4 3 -1 6 5 6 7 0 12 9 12 19 0 11 5 23 10 26 6
3 10 15 10 26 0 10 4 19 9 19 5 0 7 8 4 19 -3 10 0 22 6 25 6 4 11 17 11 30 0
12 3 26 7 30 4 4 8 20 9 36 1 16 5 37 9 47 24 59 23 527 -2 579 -5 11 -8 31
-7 47 0 15 -3 27 -7 27 -5 0 -9 11 -9 23 0 13 -3 27 -7 31 -5 4 -8 11 -9 14
-6 39 -18 72 -25 72 -5 0 -8 3 -8 8 1 4 0 9 -1 12 -1 3 -3 14 -5 25 -2 11 -9
21 -14 23 -6 2 -11 10 -11 18 0 9 -11 35 -24 59 -14 24 -22 46 -19 49 4 3 1 6
-5 6 -7 0 -12 5 -12 11 0 5 -26 49 -57 96 -55 82 -239 279 -312 333 -18 14
-42 32 -51 42 -10 9 -27 19 -39 23 -12 3 -21 10 -21 14 0 4 -16 13 -35 21 -19
8 -35 18 -35 22 0 5 -4 7 -9 4 -5 -3 -14 0 -20 7 -6 8 -30 20 -53 27 -24 8
-45 17 -48 20 -9 12 -88 39 -94 33 -3 -4 -6 -2 -6 4 0 9 -40 24 -75 27 -5 1
-17 6 -25 11 -8 6 -28 11 -45 12 -16 1 -46 6 -65 11 -19 4 -48 7 -65 5 -16 -1
-36 3 -44 10 -12 10 -13 9 -6 -2 6 -11 5 -12 -6 -5 -15 9 -289 14 -289 5z"/>
</g>
</svg>
